PathFileType	4	(X/Y/Z)	Patient4_TMGait_0pt4_02_right_38.trc.trc
DataRate	CameraRate	NumFrames	NumMarkers	Units	OrigDataRate	OrigDataStartFrame	OrigNumFrames
76.086956521739	76.086956521739	4	33	mm	76.086956521739	71	       141
Frame#	Time	Sacral			L.Shoulder			Chest			R.Shoulder			Neck			R.ASIS			L.ASIS			R.Thigh.Superior			R.Thigh.Lateral			R.Thigh.Inferior			R.Patella			L.Thigh.Superior			L.Thigh.Lateral			L.Thigh.Inferior			L.Patella			L.Shank.Superior			L.Shank.Lateral			L.Shank.Inferior			R.Shank.Superior			R.Shank.Lateral			R.Shank.Inferior			R.Heel			R.Midfoot.Superior			R.Midfoot.Lateral			R.Toe			L.Heel			L.Midfoot.Lateral			L.Midfoot.Superior			L.Toe			L.Elbow			L.Wrist			R.Elbow			R.Wrist			
		X1	Y1	Z1	X2	Y2	Z2	X3	Y3	Z3	X4	Y4	Z4	X5	Y5	Z5	X6	Y6	Z6	X7	Y7	Z7	X8	Y8	Z8	X9	Y9	Z9	X10	Y10	Z10	X11	Y11	Z11	X12	Y12	Z12	X13	Y13	Z13	X14	Y14	Z14	X15	Y15	Z15	X16	Y16	Z16	X17	Y17	Z17	X18	Y18	Z18	X19	Y19	Z19	X20	Y20	Z20	X21	Y21	Z21	X22	Y22	Z22	X23	Y23	Z23	X24	Y24	Z24	X25	Y25	Z25	X26	Y26	Z26	X27	Y27	Z27	X28	Y28	Z28	X29	Y29	Z29	X30	Y30	Z30	X31	Y31	Z31	X32	Y32	Z32	X33	Y33	Z33	

71	51.060000000000	838.237259968816	1003.477265076297	515.999551926681	997.898949348568	1435.162794429291	329.781479166497	1120.643345382814	1360.376502351902	473.395890159250	1061.810019212918	1428.318987706374	659.629129178101	1006.615636182683	1492.900928957595	487.444197100678	1075.370976521937	936.502300014545	610.786557228876	1037.028129406068	960.069852727343	338.158546270992	1080.483820907564	726.952796806209	578.524088557905	985.797039685293	627.593409225592	645.332312412409	1045.435660939782	566.598573394177	561.351291422737	1029.791784456357	480.338757896206	566.509952941902	1110.755309944340	769.281647439554	360.427964944823	1051.742873406963	640.764625808786	287.778508746366	1156.372115934785	579.672009242777	343.051797121863	1179.770811594571	513.879247229709	339.923904941093	1159.289105798629	441.970168733756	330.758959736763	1084.267796973479	316.448683389607	281.817086704283	1167.164917365353	212.151668185519	333.179280018417	991.890436663833	394.807438157537	574.105629983112	911.499130644363	299.868489183607	640.239735782151	936.590603119084	201.806341396560	572.416270824900	785.370913027026	44.021433036180	547.272228108835	958.653001182569	96.257940618561	576.274178028273	871.326271526344	37.165611294930	618.547669423230	1079.030614117957	41.359551752614	599.304279717550	1074.795818835942	40.925180612155	374.215990232362	1145.520407074300	40.938202049502	291.475891094161	1223.012403049000	111.740317583177	311.413440434899	1352.726713727305	72.426228960512	278.772246037346	882.057058487897	1100.933855282872	224.786242526186	902.980260758779	838.676212184232	214.657933403369	1141.578184504295	1088.139289766897	762.591287333481	1367.245283198964	1090.492950470567	650.741658375837	
72	51.073142857143	839.469049558064	1002.542552448463	513.479647607861	997.448275913608	1434.543472700566	327.364980100442	1120.315673766590	1360.451241607718	471.193129397677	1060.742110271970	1428.007914741099	657.332543114647	1005.476820382933	1492.321183980352	485.073923427517	1076.649541318050	936.049862575759	608.934287400105	1038.851362928542	959.236066120206	336.301550994680	1080.550441212388	725.991114966076	577.442629551565	984.426800120768	627.385048018303	644.009125759691	1043.754636740142	565.741892643352	560.470036846195	1027.173004094944	479.492584265481	565.432953989272	1112.311571017486	767.654206942849	359.272826964223	1051.863096931009	638.986812026788	287.869436213958	1156.408932647885	577.901414445599	343.120765859241	1178.645890316710	511.211983661390	340.655218890304	1157.332834786111	438.899558555350	331.571996082012	1080.043605024700	314.351907960610	283.501455182272	1161.126373496281	208.868579452216	335.195227302458	988.760851047458	394.305904478015	573.247037896877	907.691166189342	300.083096984698	639.628152317566	932.121243202278	201.662317164019	572.060919256608	780.129390635960	44.287643939846	547.311859892355	953.438924060950	96.265032591968	576.222481486510	866.069904839811	37.244107205439	618.542986143418	1073.740664496140	41.204788215543	599.367621753211	1065.328479872942	40.254711604086	376.749369349399	1135.903113448237	39.070688444414	293.807870029575	1215.279583683454	107.524885588237	314.245515838864	1344.187074996365	64.929206917293	281.112902666868	884.461513253614	1099.429165335347	221.677557251010	911.255460354249	837.614735589128	211.281697731473	1142.390928356205	1088.016030990622	759.025678845070	1365.861302235895	1098.161797796153	644.055910155519	
73	51.086285714286	840.717742098425	1001.713710947368	510.817645934507	997.157566868487	1433.936611844947	324.731957054993	1120.071463085082	1360.580147876533	468.854766843452	1059.692531269053	1427.832010458377	654.850604758234	1004.439621687102	1491.816086462383	482.480455362510	1077.909799379060	935.641922904733	606.966282247522	1040.700772138273	958.500381158150	334.366029194850	1080.749358597290	725.090707554335	576.272467477199	983.228691329400	627.220197136266	642.540995924036	1042.316257708007	564.934311097943	559.457589644411	1024.852944934353	478.633404020619	564.242618045721	1113.831674463788	766.072310966367	358.108180781276	1052.018313297356	637.464989950214	287.763026458976	1156.416103304861	576.309421587854	343.123214002715	1177.372783462358	508.756002670555	341.342812112009	1155.396467553318	436.103445166086	332.188474360479	1076.158319936117	312.485494863682	284.732694728102	1155.424091921353	205.942136846114	336.890315682236	985.849040372963	393.826248762773	572.284946900130	904.038142031828	300.402018729811	638.936351279743	927.763238982621	201.588348751045	571.670872455210	774.909671926602	44.720031668852	547.355621456047	948.260650028732	96.287738244232	576.121685934003	860.840192436027	37.407727323033	618.539858775958	1068.480474857772	41.016667235172	599.436567896947	1056.444890586673	39.670106599159	378.734473208035	1126.953303733491	37.604675032599	295.659518956069	1207.894858739571	103.963090525110	316.756382752536	1336.153300339508	58.592534141812	283.255296133248	887.246823880923	1097.894345126941	218.294735308039	920.111512485238	836.675740181644	207.640104060429	1142.995705593480	1088.057679818939	755.657045758053	1364.215399738691	1105.073549797621	637.843119357325	
74	51.099428571429	841.943757079144	1001.046802926838	508.057383794043	997.033326929359	1433.384288205763	321.908077537634	1119.923948405955	1360.780760668498	466.388586065258	1058.721835213547	1427.837887501409	652.192280660519	1003.527116071621	1491.428129840459	479.676523657642	1079.107264535182	935.314251645914	604.872603424229	1042.494169118756	957.918209585021	332.336766054683	1081.060214142578	724.302849771008	574.954002146587	982.272443738183	627.108994524985	640.912775499025	1041.196769242718	564.204098658174	558.279936281813	1022.959734928653	477.754864147201	562.948631102250	1115.295392433900	764.675629498512	356.911822256106	1052.280771006758	636.302854410760	287.393294375524	1156.448114833553	575.000150635786	342.986693573581	1176.050303468971	506.643553370708	341.885551652367	1153.586581527286	433.707999464096	332.545235775168	1072.778526760741	310.952816731561	285.394723891538	1150.221399375789	203.496610020361	338.187205785803	983.241429720103	393.371930362615	571.220470824718	900.604175778687	300.851466351527	638.162108269531	923.562041388035	201.606201884060	571.250112172328	769.720115359283	45.379751496894	547.405063021488	943.137492909534	96.324948378714	575.956875280245	855.646596008784	37.684330281048	618.540139482990	1063.261263613912	40.789578032073	599.508203109024	1048.377851134473	39.202745125963	380.143776079998	1118.882168002812	36.561840790616	296.988693956389	1201.025016760034	101.183835094011	318.810492343635	1328.806198555752	53.635485569263	285.050355585091	890.451739675878	1096.370104069858	214.659486367497	929.495276020390	835.905163881525	203.766551658759	1143.348605147384	1088.290108403000	752.514364272797	1362.364606154842	1111.132084979229	632.136469414193	
